<svg width="359" height="88" fill="none" xmlns="http://www.w3.org/2000/svg">
  <path d="M153 31a3 3 0 0 1 3-3h26a3 3 0 0 1 3 3v26a3 3 0 0 1-3 3h-26a3 3 0 0 1-3-3V31Z" fill="#fff" fill-opacity=".01"/>
  <path d="M163 36c2.209 0 4 1.792 4 4.002V42h5.991c1.11 0 2.009.887 2.009 2v6c0 1.105-.902 2-2.009 2h-7.982A1.999 1.999 0 0 1 163 50v-6c0-1.102.898-1.996 2-2v-1.998A2.001 2.001 0 0 0 163 38c-1.102 0-2 .898-2 2.002V43h-2v-2.998A4.004 4.004 0 0 1 163 36Zm6 9a2 2 0 1 0 0 4 2 2 0 0 0 0-4Z" fill="#C1C7D0"/>
  <path d="M185 31a3 3 0 0 1 3-3h26a3 3 0 0 1 3 3v26a3 3 0 0 1-3 3h-26a3 3 0 0 1-3-3V31Z" fill="#fff" fill-opacity=".01"/>
  <path fill="#fff" fill-opacity=".01" d="M189 32h24v24h-24z"/>
  <path fill-rule="evenodd" clip-rule="evenodd" d="M201 50c-4.536 0-7.999-4.26-7.999-6 0-2.001 3.459-6 8-6 4.376 0 7.998 3.973 7.998 6 0 1.74-3.462 6-7.998 6H201Zm.001-14C195.48 36 191 40.841 191 44c0 3.086 4.576 8 10 8 5.423 0 10-4.914 10-8 0-3.159-4.48-8-10-8" fill="#C1C7D0"/>
  <path fill-rule="evenodd" clip-rule="evenodd" d="M200.977 45.984c-1.103 0-2-.897-2-2s.897-2 2-2c1.104 0 2 .897 2 2s-.896 2-2 2Zm0-6c-2.206 0-4 1.794-4 4s1.794 4 4 4c2.207 0 4-1.794 4-4s-1.793-4-4-4Z" fill="#C1C7D0"/>
  <path d="M217 31a3 3 0 0 1 3-3h26a3 3 0 0 1 3 3v26a3 3 0 0 1-3 3h-26a3 3 0 0 1-3-3V31Z" fill="#fff" fill-opacity=".01"/>
  <path fill="#fff" fill-opacity=".01" d="M221 32h24v24h-24z"/>
  <path fill-rule="evenodd" clip-rule="evenodd" d="M225 44v7a.97.97 0 0 0 .278.704.999.999 0 0 0 .701.296H227v-9h-1.02a.988.988 0 0 0-.912.62.97.97 0 0 0-.068.38Zm15.281-.96a3.042 3.042 0 0 0-2.321-1.061h-2.634c.04-.181.08-.36.11-.532.515-2.934 0-4-.504-4.594a2.43 2.43 0 0 0-1.857-.853 3.079 3.079 0 0 0-2.968 2.751c-.393 1.839-.454 2-.968 2.725l-.768 1.089a2.009 2.009 0 0 0-.363 1.141v6.273c.001.532.216 1.041.596 1.416s.896.585 1.433.584h7.247a3.014 3.014 0 0 0 2.997-2.507l.677-4a2.967 2.967 0 0 0-.677-2.432Zm-1.998 6.1a1.01 1.01 0 0 1-1 .835h-7.245v-6.269l.767-1.089a7.575 7.575 0 0 0 1.302-3.509c.036-.543.255-1.209.969-1.108.714.1.575 1.916.363 3.1a19.698 19.698 0 0 1-.868 2.882l5.39-.008c.297-.001.58.128.773.352a.994.994 0 0 1 .226.813l-.676 4.001h-.001Z" fill="#C1C7D0"/>
  <path d="M249 31a3 3 0 0 1 3-3h26a3 3 0 0 1 3 3v26a3 3 0 0 1-3 3h-26a3 3 0 0 1-3-3V31Z" fill="#fff" fill-opacity=".01"/>
  <path fill="#fff" fill-opacity=".01" d="M253 32h24v24h-24z"/>
  <path d="M259 47a2.998 2.998 0 0 0 3-3 2.999 2.999 0 0 0-5.121-2.121A2.999 2.999 0 0 0 259 47Zm0-2a1 1 0 1 1 0-1.999A1 1 0 0 1 259 45Zm12-4a2.998 2.998 0 0 0 3-3 2.999 2.999 0 0 0-5.121-2.121A2.999 2.999 0 0 0 271 41Zm0-2a1 1 0 1 1 0-1.999A1 1 0 0 1 271 39Zm0 14a2.998 2.998 0 0 0 3-3 2.999 2.999 0 0 0-5.121-2.121A2.999 2.999 0 0 0 271 53Zm0-2a1 1 0 1 1 0-1.999A1 1 0 0 1 271 51Z" fill="#C1C7D0"/>
  <path fill-rule="evenodd" clip-rule="evenodd" d="m260 45.562 8.66 5 1-1.732-8.66-5-1 1.732Z" fill="#C1C7D0"/>
  <path fill-rule="evenodd" clip-rule="evenodd" d="m260 42.83 1 1.732 8.66-5-1-1.732-8.66 5Z" fill="#C1C7D0"/>
  <path d="M287 31a3 3 0 0 1 3-3h26a3 3 0 0 1 3 3v26a3 3 0 0 1-3 3h-26a3 3 0 0 1-3-3V31Z" fill="#fff" fill-opacity=".01"/>
  <path fill="#fff" fill-opacity=".01" d="M291 32h24v24h-24z"/>
  <path d="M296 46a2 2 0 1 0 0-4 2 2 0 0 0 0 4ZM303 46a2 2 0 1 0 0-4 2 2 0 0 0 0 4ZM310 46a2 2 0 1 0 0-4 2 2 0 0 0 0 4Z" fill="#C1C7D0"/>
</svg>