<svg xmlns="http://www.w3.org/2000/svg" width="739" height="429" fill="none">
  <rect width="580.385" height="20" fill="#091E42" fill-opacity=".13" rx="3"/>
  <rect width="60" height="32" y="44" fill="#091E42" fill-opacity=".08" rx="3"/>
  <rect width="44" height="6" x="8" y="57" fill="#091E42" fill-opacity=".13" rx="3"/>
  <rect width="99" height="32" x="68" y="44" fill="#091E42" fill-opacity=".08" rx="3"/>
  <rect width="83" height="6" x="76" y="57" fill="#091E42" fill-opacity=".13" rx="3"/>
  <rect width="99" height="32" x="175" y="44" fill="#091E42" fill-opacity=".08" rx="3"/>
  <rect width="59" height="6" x="183" y="57" fill="#091E42" fill-opacity=".13" rx="3"/>
  <path fill="#fff" fill-opacity=".01" d="M245 48h24v24h-24z"/>
  <path fill="#C1C7D0" fill-rule="evenodd" d="M253.292 58.293a1.009 1.009 0 0 0 0 1.419l2.939 2.965c.218.215.5.322.779.322s.556-.107.769-.322l2.93-2.955a1.008 1.008 0 0 0-.322-1.637.987.987 0 0 0-1.084.218l-2.298 2.317-2.307-2.327a.997.997 0 0 0-.703-.293.99.99 0 0 0-.703.293Z" clip-rule="evenodd"/>
  <rect width="60" height="32" x="282" y="44" fill="#091E42" fill-opacity=".08" rx="3"/>
  <rect width="44" height="6" x="290" y="57" fill="#091E42" fill-opacity=".13" rx="3"/>
  <rect width="738.462" height="12" y="100" fill="#091E42" fill-opacity=".13" rx="3"/>
  <rect width="738.462" height="12" y="128" fill="#091E42" fill-opacity=".13" rx="3"/>
  <rect width="347.308" height="12" y="156" fill="#091E42" fill-opacity=".13" rx="3"/>
  <rect width="130.385" height="12" y="210" fill="#091E42" fill-opacity=".13" rx="3"/>
  <rect width="52" height="20" y="234" fill="#EBECF0" rx="3"/>
  <rect width="44" height="6" x="4" y="241" fill="#091E42" fill-opacity=".13" rx="3"/>
  <rect width="85" height="20" x="60" y="234" fill="#7A869A" rx="3"/>
  <rect width="77" height="6" x="64" y="241" fill="#EBECF0" rx="3"/>
  <rect width="52" height="20" x="153" y="234" fill="#EBECF0" rx="3"/>
  <rect width="44" height="6" x="157" y="241" fill="#091E42" fill-opacity=".13" rx="3"/>
  <rect width="52" height="20" x="213" y="234" fill="#EBECF0" rx="3"/>
  <rect width="44" height="6" x="217" y="241" fill="#091E42" fill-opacity=".13" rx="3"/>
  <g clip-path="url(#a)">
    <path fill="#B2D4FF" d="M5.118 300c0 8.772 7.11 15.882 15.882 15.882 8.771 0 15.882-7.11 15.882-15.882 0-8.771-7.11-15.882-15.882-15.882-8.771 0-15.882 7.111-15.882 15.882Z"/>
    <path fill="#2684FF" d="m14.362 309.157 3.61 2.488c2.798 1.931 6.66.866 8.074-2.227l.059-.13.514.302 2.965 1.741c.496.289.919.681 1.244 1.141a15.81 15.81 0 0 1-9.825 3.41 15.825 15.825 0 0 1-11.454-4.887c1.37-.832 3.095-1.462 4.695-1.922l.12.082-.002.002Z"/>
    <path fill="#4C9AFF" d="m27.067 295.141-.03-.069.023.033a.186.186 0 0 0 .01.039l-.003-.003Z"/>
    <path fill="url(#b)" d="M17.216 307.404v-4.488c.75 1.349 1.503 2.478 1.933 2.657.192.097.39.192.589.282a21.44 21.44 0 0 0 2.603.96c.582.174 1.032.284 1.214.309.264.041.514.093.755.123v.845l2.307 1.498-.515-.302-.059.13c-1.413 3.09-5.276 4.158-8.074 2.227l-3.61-2.488 2.855-1.753h.002Z"/>
    <path fill="#FFE5D4" d="M22.341 306.815a21.44 21.44 0 0 1-2.603-.96c-.2-.09-.397-.185-.589-.282-.43-.179-1.183-1.308-1.933-2.657-.11-.2-.222-.405-.33-.612-.394-.138-.783-.433-1.124-.819-.786-.968-1.303-2.806-.573-3.441 1.213-1.055 2.086.31 2.086.31l.018.095c-.522 1.751-.148 2.867.433 3.878.12.207.248.412.379.617.007.033.015.067.025.1v-.062l-.025-.041a9.958 9.958 0 0 1-.157-.719 4.284 4.284 0 0 1-.05-1.262c.117-.986.68-1.961 2.137-3.11 1.385-.689 2.867-3.766 3.377-4.903a3.953 3.953 0 0 1 2.785.942l.26.226a5.72 5.72 0 0 1 .608 1.029c.42.911.68 2.104.463 3.602a7.421 7.421 0 0 1-.105.581c-.118.542.4.694.364 1.712-.041 1.114-1.014 2.532-1.255 3.538-.01.067-.025.11-.025.11s-.006.003-.006.006v.005c-.463 2.501-1.22 2.683-2.19 2.552-.239-.033-.492-.085-.756-.123a11.495 11.495 0 0 1-1.214-.31v-.002Z"/>
    <path fill="#172B4D" d="M18.13 303.044a1.217 1.217 0 0 0-.025-.1l.025.041v.061-.002Z"/>
    <path fill="#172B4D" d="M27.067 295.141s-.005-.025-.01-.038l-.023-.034a5.974 5.974 0 0 0-.576-.96l-.261-.225a3.922 3.922 0 0 0-2.785-.942c-.51 1.137-1.992 4.214-3.377 4.902-1.457 1.15-2.017 2.125-2.138 3.111-.05.415-.023.832.052 1.262.04.235.092.474.156.719-.13-.204-.259-.409-.38-.617-.58-1.011-.954-2.127-.432-3.878l-.018-.095s-.87-1.364-2.086-.31c-.732.635-.213 2.476.573 3.441.34.387.73.681 1.124.819.11.208.22.412.33.612v4.291a3.816 3.816 0 0 1-5.675-2.65 3.815 3.815 0 0 1 1.85-3.953l-.12-.046c-.94-4.108.315-8.038 2.376-9.451 1.441-.988 2.79-1.551 4.175-1.69l-.012-.013s.03 0 .079.006c.952-.085 1.925.033 2.96.353.42.13.81.322 1.174.555.407.187 1.664.725 1.81.817a.34.34 0 0 0 .049.026c1.551.962 2.78 2.447 2.744 4.736-.064 4.083.88 4.976 1.557 5.829.676.855.292 1.963-.704 1.812 0 0 .975-.258-.023-1.341-.64-.694-1.454-1.925-1.925-3.451.217-1.495-.044-2.691-.464-3.602v.005Z"/>
  </g>
  <rect width="591" height="40" x="46" y="281" fill="#F4F5F7" rx="3"/>
  <rect width="71" height="6" x="54" y="297" fill="#091E42" fill-opacity=".13" rx="3"/>
  <rect width="423" height="6" x="44" y="387" fill="#091E42" fill-opacity=".13" rx="3"/>
  <rect width="266" height="6" x="44" y="405" fill="#091E42" fill-opacity=".13" rx="3"/>
  <rect width="266" height="6" x="44" y="423" fill="#091E42" fill-opacity=".13" rx="3"/>
  <rect width="119" height="6" x="44" y="358" fill="#091E42" fill-opacity=".13" rx="3"/>
  <g clip-path="url(#c)">
    <path fill="#C0B6F2" d="M15.939 354.064h-.003C7.135 354.064 0 361.199 0 370v.003c0 8.801 7.135 15.936 15.936 15.936h.003c8.8 0 15.936-7.135 15.936-15.936V370c0-8.801-7.135-15.936-15.936-15.936Z"/>
    <path fill="url(#d)" d="M20.8 375.67c-.4-.378-.648-.89-.686-1.449-.568.525-1.526 1.158-2.176 1.598a2.957 2.957 0 0 1-3.044.151c-.942-.51-2.49-1.316-2.806-1.843l.02.325a2.216 2.216 0 0 1-.673 1.736c.395 1.797 4.199 5.872 4.944 6.658.653-.814 4.219-5.348 4.421-7.178v.002Z"/>
    <path fill="#5243AA" d="M23.862 377.775c.01.015.02.025.03.041l-7.48 5.068.095.098-.128-.074-.103.069s.026-.034.07-.087l-8.093-4.731-2.995 1.346a6.115 6.115 0 0 0-1.367.853c2.924 3.415 7.26 5.581 12.106 5.581 4.857 0 9.201-2.174 12.125-5.599a5.798 5.798 0 0 0-.451-.259l-3.812-2.304.003-.002Z"/>
    <path fill="#6554C0" d="m16.348 382.887-.069.087.102-.069.128.074-.094-.097 7.48-5.069c-.01-.015-.02-.025-.03-.041-1.793-2.452-3.06-2.12-3.06-2.12v.016c-.202 1.83-3.768 6.364-4.421 7.178-.745-.786-4.552-4.861-4.943-6.658 0-.011-.006-.021-.008-.031 0 0-1.6-.274-3.22 1.971l.048.028 8.092 4.731h-.005Z"/>
    <path fill="#D8AB87" d="M21.386 369.898c-.03.348-.092.768-.171 1.203.489-.023.62-.346.824-1.081.207-.747.476-2.467-.297-2.813a26.315 26.315 0 0 1-.307 2.104c-.015.197-.033.395-.049.587Zm-10.936-2.12c-.72.43-.284 2.104-.005 2.824.23.591.381.906.706.978-.12-.418-.22-.82-.284-1.158-.159-.852-.333-1.769-.42-2.647l.003.003Z"/>
    <path fill="#E8BB9C" d="M14.894 375.97a2.957 2.957 0 0 0 3.044-.151c.65-.44 1.608-1.073 2.176-1.598.22-.202.384-.391.445-.542.195-.479.471-1.57.656-2.576.08-.435.14-.855.171-1.203.016-.192.034-.389.049-.586-.064.346-.113.558-.113.558l-.292.361s.65-1.925-.35-3.021c-1.001-1.095-.643-3.927-.835-4.055-1.17-1.666-2.583-.028-3.883-.123l-.315.016c-1.283.225-2.926-1.303-3.853.512-.18.146.61 2.918-.277 4.111-.885 1.19-.048 3.041-.048 3.041l-.325-.33s-.42-1.275-.704-2.714c.002.036.007.075.01.111.09.878.261 1.794.42 2.647.064.335.164.739.284 1.157.284.99.673 2.063.916 2.521l.018.026c.315.527 1.864 1.334 2.806 1.843v-.005Zm.765-4.219.515.09.115-.011.371-.13s1.634-.013 1.915.783c0 0-.274.098-.747.11-.161.005-.225-.082-.474-.076-.701.017-1.031.084-1.031.084s-.228-.046-1.199-.046c-.41 0-.59.118-.798.136-.282.02-.515-.059-.515-.059.051-.858 1.846-.878 1.846-.878l.002-.003Z"/>
    <path fill="#4A3222" d="m11.144 370.379.325.33s-.84-1.851.048-3.041c.886-1.191.098-3.963.277-4.112.924-1.812 2.568-.286 3.853-.512l.315-.015c1.3.095 2.713-1.544 3.883.123.192.128-.166 2.959.835 4.055 1 1.096.35 3.021.35 3.021l.292-.361s.046-.215.113-.558c.092-.497.223-1.267.307-2.105.067-.66.105-1.354.072-1.978.115-5.958-4.6-6.07-6.106-5.958-1.51.036-6.233.623-5.514 6.557.028.583.125 1.226.246 1.838.284 1.438.704 2.713.704 2.713v.003Zm2.67 2.25s.233.082.514.059c.208-.015.39-.136.799-.136.97 0 1.198.046 1.198.046s.33-.064 1.032-.084c.246-.008.312.079.473.077.474-.013.748-.11.748-.11-.282-.794-1.915-.784-1.915-.784l-.371.131-.115.01-.515-.09s-1.795.021-1.846.879l-.002.002Z"/>
  </g>
  <defs>
    <linearGradient id="b" x1="26.617" x2="13.824" y1="307.764" y2="307.764" gradientUnits="userSpaceOnUse">
      <stop stop-color="#F2D1BB"/>
      <stop offset="1" stop-color="#FFE5D4"/>
    </linearGradient>
    <linearGradient id="d" x1="15.897" x2="16.201" y1="384.248" y2="372.497" gradientUnits="userSpaceOnUse">
      <stop offset=".23" stop-color="#E8BB9C"/>
      <stop offset=".96" stop-color="#D8AB87"/>
    </linearGradient>
    <clipPath id="a">
      <path fill="#fff" d="M5 284h32v32H5z"/>
    </clipPath>
    <clipPath id="c">
      <path fill="#fff" d="M0 354h32v32H0z"/>
    </clipPath>
  </defs>
</svg>
