<svg xmlns="http://www.w3.org/2000/svg" width="450" height="56" fill="none">
  <g clip-path="url(#a)">
    <rect width="238" height="32" x="25" y="12" fill="#F4F5F7" rx="3"/>
    <path fill="#C1C7D0" fill-rule="evenodd" d="M46 27a4 4 0 1 1-8 0 4 4 0 0 1 8 0Zm-.523 4.89a6 6 0 1 1 1.414-1.414l2.816 2.817a1 1 0 0 1-1.414 1.414l-2.816-2.816Z" clip-rule="evenodd"/>
    <path fill="#fff" fill-opacity=".01" d="M274 16h24v24h-24z"/>
    <path fill="#C1C7D0" fill-rule="evenodd" d="M280.485 33.669a2 2 0 0 0 2.829 0l-2.829-2.83a2.004 2.004 0 0 0-.434 2.18c.101.244.248.464.434.65Zm4.897-12.191-.725.725c-.782.782-2.21 1.813-3.206 2.311l-3.017 1.509c-.495.248-.584.774-.187 1.171l8.556 8.556c.398.396.922.313 1.171-.188l1.51-3.016c.494-.988 1.526-2.42 2.311-3.206l.725-.726a5.046 5.046 0 0 0 .64-6.356 1.01 1.01 0 1 0-1.354-1.494c-.023.025-.046.049-.066.075a5.044 5.044 0 0 0-4.72-.457 5.03 5.03 0 0 0-1.638 1.095v.001Z" clip-rule="evenodd"/>
    <path fill="#fff" fill-opacity=".01" d="M314 16h24v24h-24z"/>
    <path fill="#C1C7D0" fill-rule="evenodd" d="M336 28c0 5.523-4.477 10-10 10s-10-4.477-10-10 4.477-10 10-10 10 4.477 10 10Zm-7.172-4.84a3.97 3.97 0 0 1 1.062 1.89 3.988 3.988 0 0 1-2.536 4.698.507.507 0 0 0-.35.472v.782a1.005 1.005 0 0 1-1.002 1.002A1.003 1.003 0 0 1 325 31.002v-2.014a.998.998 0 0 1 1-.987h-.007a2.004 2.004 0 0 0 2.003-2 2.003 2.003 0 0 0-3.405-1.386 2 2 0 0 0-.602 1.388c-.002.551-.45.998-1.002.998a.993.993 0 0 1-.982-.904L322 25.95c.017-2.504 2.321-4.436 4.933-3.842a3.973 3.973 0 0 1 1.895 1.052ZM327 34a1 1 0 1 1-2 0 1 1 0 0 1 2 0Z" clip-rule="evenodd"/>
    <path fill="#fff" fill-opacity=".01" d="M354 16h24v24h-24z"/>
    <path fill="#C1C7D0" fill-rule="evenodd" d="M365.701 32.7a5.002 5.002 0 1 1 0-10.003 5.001 5.001 0 1 1 0 10.004V32.7Zm8.368-3.116a1.998 1.998 0 0 1-1.346-1.885c0-.876.563-1.613 1.345-1.885a.482.482 0 0 0 .315-.574 8.95 8.95 0 0 0-.836-1.993.476.476 0 0 0-.598-.195 2.04 2.04 0 0 1-1.29.08 1.989 1.989 0 0 1-1.404-1.395c-.117-.43-.09-.884.076-1.297a.478.478 0 0 0-.196-.597 8.978 8.978 0 0 0-1.975-.826.48.48 0 0 0-.574.314 1.994 1.994 0 0 1-3.769.001.48.48 0 0 0-.575-.315c-.708.2-1.379.485-2.004.842a.47.47 0 0 0-.198.582 2.005 2.005 0 0 1-2.595 2.619.478.478 0 0 0-.595.196 8.953 8.953 0 0 0-.833 1.994.478.478 0 0 0 .308.572 1.997 1.997 0 0 1 1.323 1.877c0 .867-.552 1.599-1.324 1.877a.48.48 0 0 0-.308.57 8.96 8.96 0 0 0 .723 1.79.478.478 0 0 0 .624.194c.595-.273 1.343-.264 2.104.238.117.077.225.185.302.3.527.8.512 1.58.198 2.188a.472.472 0 0 0 .168.628c.662.388 1.371.69 2.11.897a.474.474 0 0 0 .57-.313 1.996 1.996 0 0 1 1.886-1.353c.878 0 1.618.567 1.887 1.353a.473.473 0 0 0 .57.313 8.975 8.975 0 0 0 2.084-.883.471.471 0 0 0 .167-.631c-.318-.608-.337-1.393.191-2.195.077-.116.185-.225.302-.302.772-.511 1.527-.513 2.125-.23a.477.477 0 0 0 .628-.19c.307-.57.551-1.17.728-1.793a.48.48 0 0 0-.314-.573Z" clip-rule="evenodd"/>
    <path fill="#fff" fill-opacity=".01" d="M394 12h32v32h-32z"/>
    <g clip-path="url(#b)">
      <path fill="#B2D4FF" d="M424.93 27.996c0-8.246-6.685-14.931-14.931-14.931-8.247 0-14.932 6.685-14.932 14.931 0 8.247 6.685 14.932 14.932 14.932 8.246 0 14.931-6.685 14.931-14.932Z"/>
      <path fill="#2684FF" d="M416.394 39.69a4.277 4.277 0 0 1-2.655-3.95 4.172 4.172 0 0 1 1.471-3.218c5.888-4.944 2.235-14.518-5.364-14.364-7.444.127-10.831 9.523-5.054 14.364a4.178 4.178 0 0 1 1.471 3.218 4.27 4.27 0 0 1-2.654 3.95c-.463.192-.917.406-1.366.632-.125.064-.242.139-.365.206a14.862 14.862 0 0 0 8.124 2.407c3 0 5.792-.888 8.129-2.41a16.828 16.828 0 0 0-1.735-.835h-.002Z"/>
    </g>
  </g>
  <defs>
    <clipPath id="a">
      <path fill="#fff" d="M24 11h402v34H24z"/>
    </clipPath>
    <clipPath id="b">
      <path fill="#fff" d="M395 13h30v30h-30z"/>
    </clipPath>
  </defs>
</svg>
